<?xml version="1.0" encoding="UTF-8"?>
<svg width="16px" height="16px" viewBox="0 0 16 16" version="1.1" xmlns="http://www.w3.org/2000/svg" xmlns:xlink="http://www.w3.org/1999/xlink">
    <!-- Generator: Sketch 45.2 (43514) - http://www.bohemiancoding.com/sketch -->
    <title>Group 33@2x</title>
    <desc>Created with Sketch.</desc>
    <defs></defs>
    <g id="控件" stroke="none" stroke-width="1" fill="none" fill-rule="evenodd">
        <g id="MIP设计规范及控件" transform="translate(-2474.000000, -5290.000000)">
            <g id="6输入" transform="translate(1396.000000, 5096.000000)">
                <g id="列表输入框">
                    <g id="Group-17" transform="translate(727.000000, 187.000000)">
                        <g id="Group-33" transform="translate(351.000000, 7.000000)">
                            <circle id="Oval-2" fill="#E8E9EF" cx="8" cy="8" r="8"></circle>
                            <path d="M7.62950853,7.47265428 L4.29199202,7.47265428 C4.04553613,7.47265428 3.83578644,7.67364198 3.83578644,7.92157288 C3.83578644,8.16225286 4.04003663,8.37049147 4.29199202,8.37049147 L7.62950853,8.37049147 L7.62950853,11.708008 C7.62950853,11.9544639 7.83049623,12.1642136 8.07842712,12.1642136 C8.31910711,12.1642136 8.52734572,11.9599634 8.52734572,11.708008 L8.52734572,8.37049147 L11.8648622,8.37049147 C12.1113181,8.37049147 12.3210678,8.16950377 12.3210678,7.92157288 C12.3210678,7.68089289 12.1168176,7.47265428 11.8648622,7.47265428 L8.52734572,7.47265428 L8.52734572,4.13513777 C8.52734572,3.88868188 8.32635802,3.67893219 8.07842712,3.67893219 C7.83774714,3.67893219 7.62950853,3.88318238 7.62950853,4.13513777 L7.62950853,7.47265428 Z" id="Combined-Shape" fill="#97989C" transform="translate(8.078427, 7.921573) rotate(45.000000) translate(-8.078427, -7.921573) "></path>
                        </g>
                    </g>
                </g>
            </g>
        </g>
    </g>
</svg>